v  -1.00 -1.00 -1.00
v  -1.00 +1.00 -1.00
v  +1.00 +1.00 -1.00
v  +1.00 -1.00 -1.00
v  -1.00 -1.00 +1.00
v  -1.00 +1.00 +1.00
v  +1.00 +1.00 +1.00
v  +1.00 -1.00 +1.00

vn +1.00  0.00  0.00
vn -1.00  0.00  0.00
vn  0.00 +1.00  0.00
vn  0.00 -1.00  0.00
vn  0.00  0.00 +1.00
vn  0.00  0.00 -1.00

f   3//1  7//1  8//1
f   3//1  8//1  4//1
f   1//2  5//2  6//2
f   1//2  6//2  2//2
f   7//3  3//3  2//3
f   7//3  2//3  6//3
f   4//4  8//4  5//4
f   4//4  5//4  1//4
f   8//5  7//5  6//5
f   8//5  6//5  5//5
f   3//6  4//6  1//6
f   3//6  1//6  2//6
